<svg width="28" height="29" viewBox="0 0 28 29" fill="none" xmlns="http://www.w3.org/2000/svg">
<g clip-path="url(#clip0_6314_4170)" filter="url(#filter0_d_6314_4170)">
<g clip-path="url(#clip1_6314_4170)">
<g clip-path="url(#clip2_6314_4170)">
<path d="M19.1073 7.59833H5.43816C5.04082 7.59833 4.71875 7.9204 4.71875 8.31774V12.946C4.71875 17.1115 8.1075 20.5 12.2727 20.5C16.438 20.5 19.8267 17.1115 19.8267 12.9461V8.31774C19.8267 7.9204 19.5046 7.59833 19.1073 7.59833ZM18.3878 12.9461C18.3878 16.318 15.6446 19.0612 12.2727 19.0612C8.90074 19.0612 6.15762 16.318 6.15762 12.9461V9.0372H18.3879L18.3878 12.9461Z" fill="black"/>
<path d="M21.0512 10.548H19.1085V11.9868H21.0512C21.7793 11.9868 22.3941 12.6017 22.3941 13.3298C22.3941 14.0578 21.779 14.6727 21.0512 14.6727H18.6289V16.1116H21.0512C22.585 16.1116 23.833 14.8638 23.833 13.3298C23.833 11.7957 22.585 10.548 21.0512 10.548Z" fill="black"/>
<path d="M12.2741 0.5C11.8768 0.5 11.5547 0.82207 11.5547 1.21941V4.64867C11.5547 5.04602 11.8768 5.36809 12.2741 5.36809C12.6714 5.36809 12.9935 5.04602 12.9935 4.64867V1.21941C12.9935 0.82207 12.6714 0.5 12.2741 0.5Z" fill="black"/>
<path d="M15.7038 1.65112C15.3064 1.65112 14.9844 1.97319 14.9844 2.37054V5.79979C14.9844 6.19714 15.3064 6.51921 15.7038 6.51921C16.1011 6.51921 16.4232 6.19714 16.4232 5.79979V2.37054C16.4232 1.97315 16.1012 1.65112 15.7038 1.65112Z" fill="black"/>
<path d="M8.84441 1.65112C8.44707 1.65112 8.125 1.97319 8.125 2.37054V5.79979C8.125 6.19714 8.44707 6.51921 8.84441 6.51921C9.24176 6.51921 9.56383 6.19714 9.56383 5.79979V2.37054C9.56383 1.97315 9.24176 1.65112 8.84441 1.65112Z" fill="black"/>
<path d="M19.4677 19.0612H4.88738C4.49004 19.0612 4.16797 19.3832 4.16797 19.7806C4.16797 20.1779 4.49004 20.5 4.88738 20.5H19.4677C19.8651 20.5 20.1871 20.1779 20.1871 19.7806C20.1871 19.3832 19.8651 19.0612 19.4677 19.0612Z" fill="black"/>
</g>
</g>
</g>
<defs>
<filter id="filter0_d_6314_4170" x="0" y="0.5" width="28" height="28" filterUnits="userSpaceOnUse" color-interpolation-filters="sRGB">
<feFlood flood-opacity="0" result="BackgroundImageFix"/>
<feColorMatrix in="SourceAlpha" type="matrix" values="0 0 0 0 0 0 0 0 0 0 0 0 0 0 0 0 0 0 127 0" result="hardAlpha"/>
<feOffset dy="4"/>
<feGaussianBlur stdDeviation="2"/>
<feComposite in2="hardAlpha" operator="out"/>
<feColorMatrix type="matrix" values="0 0 0 0 0 0 0 0 0 0 0 0 0 0 0 0 0 0 0.25 0"/>
<feBlend mode="normal" in2="BackgroundImageFix" result="effect1_dropShadow_6314_4170"/>
<feBlend mode="normal" in="SourceGraphic" in2="effect1_dropShadow_6314_4170" result="shape"/>
</filter>
<clipPath id="clip0_6314_4170">
<rect width="20" height="20" fill="white" transform="translate(4 0.5)"/>
</clipPath>
<clipPath id="clip1_6314_4170">
<rect width="20" height="20" fill="white" transform="translate(4 0.5)"/>
</clipPath>
<clipPath id="clip2_6314_4170">
<rect width="20" height="20" fill="white" transform="translate(4 0.5)"/>
</clipPath>
</defs>
</svg>
