<svg width="17" height="17" viewBox="0 0 17 17" fill="none" xmlns="http://www.w3.org/2000/svg">
<path d="M8.66816 4.53995C8.01749 4.53995 7.41749 4.70262 6.86816 5.02795C6.31882 5.35328 5.88149 5.79062 5.55616 6.33995C5.23082 6.88928 5.06816 7.48928 5.06816 8.13995C5.06816 8.79062 5.23082 9.39062 5.55616 9.93995C5.88149 10.4893 6.31882 10.9239 6.86816 11.2439C7.41749 11.5639 8.01749 11.7239 8.66816 11.7239C9.31882 11.7239 9.91882 11.5639 10.4682 11.2439C11.0175 10.9239 11.4522 10.4893 11.7722 9.93995C12.0922 9.39062 12.2522 8.79062 12.2522 8.13995C12.2522 7.48928 12.0922 6.88928 11.7722 6.33995C11.4522 5.79062 11.0175 5.35328 10.4682 5.02795C9.91882 4.70262 9.31882 4.53995 8.66816 4.53995ZM8.66816 10.4759C8.24149 10.4759 7.84949 10.3719 7.49216 10.1639C7.13482 9.95595 6.85216 9.67062 6.64416 9.30795C6.43616 8.94528 6.33216 8.55595 6.33216 8.13995C6.33216 7.72395 6.43616 7.33462 6.64416 6.97195C6.85216 6.60928 7.13482 6.32395 7.49216 6.11595C7.84949 5.90795 8.24149 5.80395 8.66816 5.80395C9.09482 5.80395 9.48682 5.90795 9.84416 6.11595C10.2015 6.32395 10.4842 6.60662 10.6922 6.96395C10.9002 7.32128 11.0042 7.71328 11.0042 8.13995C11.0042 8.56662 10.9002 8.95862 10.6922 9.31595C10.4842 9.67328 10.1988 9.95595 9.83616 10.1639C9.47349 10.3719 9.08416 10.4759 8.66816 10.4759ZM13.2442 4.39595C13.2442 4.63062 13.1615 4.83062 12.9962 4.99595C12.8308 5.16128 12.6308 5.24395 12.3962 5.24395C12.1615 5.24395 11.9642 5.16128 11.8042 4.99595C11.6442 4.83062 11.5642 4.63062 11.5642 4.39595C11.5642 4.16128 11.6442 3.96395 11.8042 3.80395C11.9642 3.64395 12.1615 3.56395 12.3962 3.56395C12.6308 3.56395 12.8308 3.64395 12.9962 3.80395C13.1615 3.96395 13.2442 4.16128 13.2442 4.39595ZM15.6122 5.24395C15.5908 4.63595 15.5002 4.10795 15.3402 3.65995C15.1588 3.14795 14.8735 2.69995 14.4842 2.31595C14.0948 1.93195 13.6442 1.64928 13.1322 1.46795C12.6842 1.30795 12.1562 1.21195 11.5482 1.17995C10.9722 1.14795 10.0095 1.13195 8.66016 1.13195C7.31082 1.13195 6.34816 1.14795 5.77216 1.17995C5.15349 1.21195 4.62549 1.30795 4.18816 1.46795C3.67616 1.64928 3.22816 1.93195 2.84416 2.31595C2.46016 2.69995 2.17749 3.14795 1.99616 3.65995C1.82549 4.10795 1.72949 4.63595 1.70816 5.24395C1.67616 5.81995 1.66016 6.78262 1.66016 8.13195C1.66016 9.48128 1.67616 10.4439 1.70816 11.0199C1.72949 11.6279 1.82016 12.1559 1.98016 12.6039C2.16149 13.1159 2.44949 13.5693 2.84416 13.9639C3.23882 14.3586 3.69216 14.6413 4.20416 14.8119C4.63082 14.9719 5.15349 15.0626 5.77216 15.0839C6.34816 15.1266 7.31082 15.1479 8.66016 15.1479C10.0095 15.1479 10.9722 15.1266 11.5482 15.0839C12.1562 15.0626 12.6842 14.9719 13.1322 14.8119C13.6442 14.6306 14.0948 14.3453 14.4842 13.9559C14.8735 13.5666 15.1588 13.1159 15.3402 12.6039C15.5002 12.1559 15.5908 11.6279 15.6122 11.0199C15.6442 10.4439 15.6602 9.48395 15.6602 8.13995C15.6602 6.79595 15.6442 5.83062 15.6122 5.24395ZM14.1242 12.2679C14.0068 12.5666 13.8335 12.8333 13.6042 13.0679C13.3748 13.3026 13.1055 13.4786 12.7962 13.5959C12.4442 13.7346 11.8735 13.8253 11.0842 13.8679C10.6362 13.8893 9.99082 13.8946 9.14816 13.8839H8.18816C7.34549 13.8946 6.70016 13.8893 6.25216 13.8679C5.45216 13.8253 4.88149 13.7346 4.54016 13.5959C4.23082 13.4786 3.96149 13.3053 3.73216 13.0759C3.50282 12.8466 3.32949 12.5773 3.21216 12.2679C3.07349 11.9159 2.98282 11.3453 2.94016 10.5559C2.91882 10.1079 2.91349 9.46262 2.92416 8.61995V7.65995C2.91349 6.81728 2.91882 6.17195 2.94016 5.72395C2.98282 4.92395 3.07349 4.35328 3.21216 4.01195C3.32949 3.70262 3.50282 3.43328 3.73216 3.20395C3.96149 2.97462 4.23082 2.80128 4.54016 2.68395C4.88149 2.54528 5.44682 2.45462 6.23616 2.41195C6.68416 2.39062 7.33482 2.38528 8.18816 2.39595H9.14816C9.99082 2.38528 10.6362 2.39062 11.0842 2.41195C11.8735 2.45462 12.4442 2.54528 12.7962 2.68395C13.1055 2.80128 13.3748 2.97462 13.6042 3.20395C13.8335 3.43328 14.0068 3.70262 14.1242 4.01195C14.2628 4.35328 14.3535 4.91862 14.3962 5.70795C14.4175 6.15595 14.4228 6.80662 14.4122 7.65995V8.61995C14.4228 9.46262 14.4175 10.1079 14.3962 10.5559C14.3535 11.3453 14.2628 11.9159 14.1242 12.2679Z" fill="#FD1D1D"/>
</svg>
