<svg width="15" height="16" viewBox="0 0 15 16" fill="none" xmlns="http://www.w3.org/2000/svg">
<g clip-path="url(#clip0_6314_4037)">
<path d="M4.03766 13.7651H1.32266V5.00514H4.03766V13.7651ZM2.67266 3.80514C2.39266 3.80514 2.13016 3.73264 1.88516 3.58764C1.64016 3.44264 1.44766 3.25014 1.30766 3.01014C1.16766 2.77014 1.09766 2.50514 1.09766 2.21514C1.09766 1.92514 1.16766 1.66014 1.30766 1.42014C1.44766 1.18014 1.63766 0.990137 1.87766 0.850137C2.11766 0.710137 2.38266 0.640137 2.67266 0.640137C2.96266 0.640137 3.22766 0.710137 3.46766 0.850137C3.70766 0.990137 3.89766 1.18014 4.03766 1.42014C4.17766 1.66014 4.24766 1.92514 4.24766 2.21514C4.24766 2.50514 4.17766 2.77014 4.03766 3.01014C3.89766 3.25014 3.70516 3.44264 3.46016 3.58764C3.21516 3.73264 2.95266 3.80514 2.67266 3.80514ZM14.2227 13.7651H11.5077V9.50514C11.5077 9.04514 11.4877 8.69514 11.4477 8.45514C11.3877 8.06514 11.2627 7.76514 11.0727 7.55514C10.8527 7.30514 10.5277 7.18014 10.0977 7.18014C9.44766 7.18014 8.99766 7.41014 8.74766 7.87014C8.55766 8.22014 8.46266 8.74014 8.46266 9.43014V13.7651H5.74766V5.00514H8.35766V6.19014H8.38766C8.58766 5.81014 8.89766 5.49014 9.31766 5.23014C9.79766 4.93014 10.3477 4.78014 10.9677 4.78014C11.8377 4.78014 12.5277 4.96514 13.0377 5.33514C13.4877 5.66514 13.8027 6.16014 13.9827 6.82014C14.1427 7.37014 14.2227 8.08014 14.2227 8.95014V13.7651Z" fill="#0077B5"/>
</g>
<defs>
<clipPath id="clip0_6314_4037">
<rect width="15" height="15" fill="white" transform="matrix(1 0 0 -1 0 15.6401)"/>
</clipPath>
</defs>
</svg>
