<svg width="15" height="16" viewBox="0 0 15 16" fill="none" xmlns="http://www.w3.org/2000/svg">
<g clip-path="url(#clip0_6314_4028)">
<path d="M10.4727 9.07014L10.8927 6.35514H8.28266V4.60014C8.28266 4.18014 8.39266 3.84514 8.61266 3.59514C8.88266 3.28514 9.28266 3.13014 9.81266 3.13014H10.9977V0.820137L10.3377 0.730137C9.80766 0.670137 9.32766 0.640137 8.89766 0.640137C8.17766 0.640137 7.55266 0.782637 7.02266 1.06764C6.49266 1.35264 6.08266 1.77014 5.79266 2.32014C5.50266 2.87014 5.35766 3.53014 5.35766 4.30014V6.35514H2.97266V9.07014H5.35766V15.6401H8.28266V9.07014H10.4727Z" fill="#1877F2"/>
</g>
<defs>
<clipPath id="clip0_6314_4028">
<rect width="15" height="15" fill="white" transform="matrix(1 0 0 -1 0 15.6401)"/>
</clipPath>
</defs>
</svg>
