<svg width="13" height="10" viewBox="0 0 13 10" fill="none" xmlns="http://www.w3.org/2000/svg">
<path d="M2.99148 9.95695C2.54214 9.95695 2.13589 9.87385 1.77273 9.70766C1.40956 9.53839 1.1218 9.29371 0.909446 8.97364C0.700166 8.65356 0.595526 8.26116 0.595526 7.79644C0.595526 7.39634 0.672467 7.06703 0.826349 6.80851C0.980232 6.54999 1.18797 6.34532 1.44957 6.19452C1.71117 6.04371 2.00355 5.92984 2.3267 5.8529C2.64986 5.77596 2.97917 5.71748 3.31463 5.67747C3.73935 5.62823 4.08404 5.58822 4.34872 5.55745C4.6134 5.52359 4.80575 5.46973 4.92578 5.39587C5.04581 5.322 5.10582 5.20198 5.10582 5.03578V5.00347C5.10582 4.6003 4.99195 4.28791 4.7642 4.06632C4.53954 3.84473 4.20407 3.73394 3.75781 3.73394C3.29309 3.73394 2.92685 3.83704 2.65909 4.04324C2.39441 4.24637 2.21129 4.47257 2.10973 4.72186L0.8125 4.42641C0.966383 3.99554 1.19105 3.64776 1.48651 3.38308C1.78504 3.11533 2.1282 2.92144 2.51598 2.80141C2.90376 2.6783 3.31155 2.61675 3.73935 2.61675C4.02249 2.61675 4.32256 2.6506 4.63956 2.71831C4.95964 2.78294 5.25817 2.90297 5.53516 3.0784C5.81522 3.25382 6.04451 3.50465 6.22301 3.83088C6.40152 4.15404 6.49077 4.57414 6.49077 5.09118V9.79999H5.14276V8.83053H5.08736C4.99811 9.00903 4.86423 9.18446 4.68572 9.35681C4.50722 9.52915 4.27794 9.67227 3.99787 9.78614C3.7178 9.90001 3.38234 9.95695 2.99148 9.95695ZM3.29155 8.84899C3.67318 8.84899 3.99941 8.77359 4.27024 8.62279C4.54415 8.47198 4.75189 8.27501 4.89347 8.03188C5.03812 7.78566 5.11044 7.52253 5.11044 7.24246V6.3284C5.0612 6.37764 4.96579 6.4238 4.82422 6.46689C4.68572 6.5069 4.52723 6.54229 4.34872 6.57307C4.17022 6.60077 3.99633 6.62693 3.82706 6.65155C3.65779 6.67309 3.51622 6.69156 3.40234 6.70695C3.13459 6.7408 2.88991 6.79774 2.66832 6.87776C2.44981 6.95778 2.27438 7.07319 2.14205 7.22399C2.01278 7.37172 1.94815 7.56869 1.94815 7.8149C1.94815 8.15652 2.07434 8.41504 2.3267 8.59047C2.57907 8.76282 2.90069 8.84899 3.29155 8.84899ZM9.38961 0.345442V9.79999H8.00928V0.345442H9.38961ZM12.3069 0.345442V9.79999H10.9266V0.345442H12.3069Z" fill="#030712"/>
</svg>
