<svg width="47" height="9" viewBox="0 0 47 9" fill="none" xmlns="http://www.w3.org/2000/svg">
<path opacity="0.7" d="M3.4375 8.60999H0.96875V0.609985H3.54688C4.32292 0.609985 4.98698 0.770141 5.53906 1.09045C6.09115 1.40816 6.51432 1.86519 6.80859 2.46155C7.10286 3.0553 7.25 3.76624 7.25 4.59436C7.25 5.42769 7.10156 6.14514 6.80469 6.7467C6.50781 7.34566 6.07552 7.8066 5.50781 8.12952C4.9401 8.44983 4.25 8.60999 3.4375 8.60999ZM1.9375 7.75061H3.375C4.03646 7.75061 4.58464 7.62301 5.01953 7.3678C5.45443 7.11259 5.77865 6.74931 5.99219 6.27795C6.20573 5.8066 6.3125 5.2454 6.3125 4.59436C6.3125 3.94853 6.20703 3.39254 5.99609 2.92639C5.78516 2.45764 5.47005 2.09827 5.05078 1.84827C4.63151 1.59566 4.10938 1.46936 3.48438 1.46936H1.9375V7.75061ZM10.9456 8.73499C10.3675 8.73499 9.8688 8.60738 9.44953 8.35217C9.03286 8.09436 8.71125 7.73499 8.48469 7.27405C8.26073 6.81051 8.14875 6.27144 8.14875 5.65686C8.14875 5.04228 8.26073 4.50061 8.48469 4.03186C8.71125 3.56051 9.02635 3.19332 9.43 2.9303C9.83625 2.66467 10.3102 2.53186 10.8519 2.53186C11.1644 2.53186 11.473 2.58394 11.7777 2.68811C12.0823 2.79228 12.3597 2.96155 12.6097 3.19592C12.8597 3.42769 13.0589 3.73499 13.2073 4.1178C13.3558 4.50061 13.43 4.97196 13.43 5.53186V5.92249H8.805V5.12561H12.4925C12.4925 4.78707 12.4248 4.48499 12.2894 4.21936C12.1566 3.95374 11.9665 3.7441 11.7191 3.59045C11.4743 3.43681 11.1852 3.35999 10.8519 3.35999C10.4847 3.35999 10.167 3.45113 9.89875 3.63342C9.63312 3.81311 9.4287 4.04749 9.28547 4.33655C9.14224 4.62561 9.07062 4.93551 9.07062 5.26624V5.79749C9.07062 6.25061 9.14875 6.63472 9.305 6.94983C9.46385 7.26233 9.68391 7.50061 9.96516 7.66467C10.2464 7.82613 10.5732 7.90686 10.9456 7.90686C11.1878 7.90686 11.4066 7.87301 11.6019 7.8053C11.7998 7.73499 11.9704 7.63082 12.1136 7.4928C12.2568 7.35217 12.3675 7.17769 12.4456 6.96936L13.3363 7.21936C13.2425 7.52144 13.0849 7.78707 12.8636 8.01624C12.6422 8.2428 12.3688 8.41988 12.0433 8.54749C11.7178 8.67249 11.3519 8.73499 10.9456 8.73499ZM15.4342 0.609985V8.60999H14.5123V0.609985H15.4342ZM16.8027 8.60999V2.60999H17.7246V8.60999H16.8027ZM17.2714 1.60999C17.0918 1.60999 16.9368 1.54879 16.8066 1.42639C16.679 1.304 16.6152 1.15686 16.6152 0.984985C16.6152 0.81311 16.679 0.665975 16.8066 0.543579C16.9368 0.421183 17.0918 0.359985 17.2714 0.359985C17.4511 0.359985 17.6048 0.421183 17.7324 0.543579C17.8626 0.665975 17.9277 0.81311 17.9277 0.984985C17.9277 1.15686 17.8626 1.304 17.7324 1.42639C17.6048 1.54879 17.4511 1.60999 17.2714 1.60999ZM23.9993 2.60999L21.7805 8.60999H20.843L18.6243 2.60999H19.6243L21.2805 7.39124H21.343L22.9993 2.60999H23.9993ZM27.1969 8.73499C26.6187 8.73499 26.1201 8.60738 25.7008 8.35217C25.2841 8.09436 24.9625 7.73499 24.7359 7.27405C24.512 6.81051 24.4 6.27144 24.4 5.65686C24.4 5.04228 24.512 4.50061 24.7359 4.03186C24.9625 3.56051 25.2776 3.19332 25.6812 2.9303C26.0875 2.66467 26.5615 2.53186 27.1031 2.53186C27.4156 2.53186 27.7242 2.58394 28.0289 2.68811C28.3336 2.79228 28.6109 2.96155 28.8609 3.19592C29.1109 3.42769 29.3102 3.73499 29.4586 4.1178C29.607 4.50061 29.6812 4.97196 29.6812 5.53186V5.92249H25.0562V5.12561H28.7437C28.7437 4.78707 28.676 4.48499 28.5406 4.21936C28.4078 3.95374 28.2177 3.7441 27.9703 3.59045C27.7255 3.43681 27.4365 3.35999 27.1031 3.35999C26.7359 3.35999 26.4182 3.45113 26.15 3.63342C25.8844 3.81311 25.6799 4.04749 25.5367 4.33655C25.3935 4.62561 25.3219 4.93551 25.3219 5.26624V5.79749C25.3219 6.25061 25.4 6.63472 25.5562 6.94983C25.7151 7.26233 25.9352 7.50061 26.2164 7.66467C26.4977 7.82613 26.8245 7.90686 27.1969 7.90686C27.4391 7.90686 27.6578 7.87301 27.8531 7.8053C28.051 7.73499 28.2216 7.63082 28.3648 7.4928C28.5081 7.35217 28.6187 7.17769 28.6969 6.96936L29.5875 7.21936C29.4937 7.52144 29.3362 7.78707 29.1148 8.01624C28.8935 8.2428 28.6201 8.41988 28.2945 8.54749C27.969 8.67249 27.6031 8.73499 27.1969 8.73499ZM30.7636 8.60999V2.60999H31.6542V3.51624H31.7167C31.8261 3.21936 32.024 2.97847 32.3105 2.79358C32.5969 2.60868 32.9198 2.51623 33.2792 2.51623C33.3469 2.51623 33.4316 2.51754 33.5331 2.52014C33.6347 2.52275 33.7115 2.52665 33.7636 2.53186V3.46936C33.7323 3.46155 33.6607 3.44983 33.5488 3.4342C33.4394 3.41597 33.3235 3.40686 33.2011 3.40686C32.9094 3.40686 32.649 3.46806 32.4198 3.59045C32.1933 3.71025 32.0136 3.87691 31.8808 4.09045C31.7506 4.30139 31.6855 4.54228 31.6855 4.81311V8.60999H30.7636ZM39.9195 2.60999V3.39124H36.8101V2.60999H39.9195ZM37.7164 1.17249H38.6382V6.89124C38.6382 7.15165 38.676 7.34696 38.7515 7.47717C38.8296 7.60478 38.9286 7.69071 39.0484 7.73499C39.1708 7.77665 39.2997 7.79749 39.4351 7.79749C39.5367 7.79749 39.62 7.79228 39.6851 7.78186C39.7502 7.76884 39.8023 7.75842 39.8414 7.75061L40.0289 8.57874C39.9664 8.60217 39.8791 8.62561 39.7671 8.64905C39.6552 8.67509 39.5132 8.68811 39.3414 8.68811C39.0809 8.68811 38.8257 8.63212 38.5757 8.52014C38.3283 8.40816 38.1226 8.23759 37.9586 8.00842C37.7971 7.77926 37.7164 7.49019 37.7164 7.14124V1.17249ZM43.3593 8.73499C42.8176 8.73499 42.3423 8.60608 41.9335 8.34827C41.5272 8.09045 41.2095 7.72978 40.9804 7.26624C40.7538 6.80269 40.6405 6.26103 40.6405 5.64124C40.6405 5.01624 40.7538 4.47066 40.9804 4.00452C41.2095 3.53837 41.5272 3.17639 41.9335 2.91858C42.3423 2.66077 42.8176 2.53186 43.3593 2.53186C43.9009 2.53186 44.3749 2.66077 44.7811 2.91858C45.19 3.17639 45.5077 3.53837 45.7343 4.00452C45.9634 4.47066 46.078 5.01624 46.078 5.64124C46.078 6.26103 45.9634 6.80269 45.7343 7.26624C45.5077 7.72978 45.19 8.09045 44.7811 8.34827C44.3749 8.60608 43.9009 8.73499 43.3593 8.73499ZM43.3593 7.90686C43.7707 7.90686 44.1093 7.80139 44.3749 7.59045C44.6405 7.37952 44.8371 7.10217 44.9647 6.75842C45.0923 6.41467 45.1561 6.04228 45.1561 5.64124C45.1561 5.24019 45.0923 4.8665 44.9647 4.52014C44.8371 4.17379 44.6405 3.89384 44.3749 3.6803C44.1093 3.46676 43.7707 3.35999 43.3593 3.35999C42.9478 3.35999 42.6093 3.46676 42.3436 3.6803C42.078 3.89384 41.8814 4.17379 41.7538 4.52014C41.6262 4.8665 41.5624 5.24019 41.5624 5.64124C41.5624 6.04228 41.6262 6.41467 41.7538 6.75842C41.8814 7.10217 42.078 7.37952 42.3436 7.59045C42.6093 7.80139 42.9478 7.90686 43.3593 7.90686Z" fill="#030712"/>
</svg>
