<svg width="33" height="11" viewBox="0 0 33 11" fill="none" xmlns="http://www.w3.org/2000/svg">
<path opacity="0.7" d="M5.67188 2.60999C5.625 2.21415 5.4349 1.90686 5.10156 1.68811C4.76823 1.46936 4.35938 1.35999 3.875 1.35999C3.52083 1.35999 3.21094 1.41728 2.94531 1.53186C2.68229 1.64644 2.47656 1.804 2.32813 2.00452C2.18229 2.20504 2.10938 2.4329 2.10938 2.68811C2.10938 2.90165 2.16016 3.08525 2.26172 3.23889C2.36589 3.38993 2.4987 3.51624 2.66016 3.6178C2.82161 3.71676 2.99089 3.79879 3.16797 3.86389C3.34505 3.92639 3.50781 3.97717 3.65625 4.01624L4.46875 4.23499C4.67708 4.28967 4.90885 4.36519 5.16406 4.46155C5.42188 4.5579 5.66797 4.68941 5.90234 4.85608C6.13932 5.02014 6.33464 5.23108 6.48828 5.48889C6.64193 5.7467 6.71875 6.06311 6.71875 6.43811C6.71875 6.8704 6.60547 7.26103 6.37891 7.60999C6.15495 7.95894 5.82682 8.23629 5.39453 8.44202C4.96484 8.64775 4.44271 8.75061 3.82812 8.75061C3.25521 8.75061 2.75911 8.65816 2.33984 8.47327C1.92318 8.28837 1.59505 8.03056 1.35547 7.69983C1.11849 7.3691 0.984375 6.98499 0.953125 6.54749H1.95313C1.97917 6.84957 2.08073 7.09957 2.25781 7.29749C2.4375 7.4928 2.66406 7.63863 2.9375 7.73499C3.21354 7.82874 3.51042 7.87561 3.82812 7.87561C4.19792 7.87561 4.52995 7.81571 4.82422 7.69592C5.11849 7.57353 5.35156 7.40426 5.52344 7.18811C5.69531 6.96936 5.78125 6.71415 5.78125 6.42249C5.78125 6.15686 5.70703 5.94071 5.55859 5.77405C5.41016 5.60738 5.21484 5.47196 4.97266 5.3678C4.73047 5.26363 4.46875 5.17249 4.1875 5.09436L3.20313 4.81311C2.57813 4.63342 2.08333 4.37691 1.71875 4.04358C1.35417 3.71025 1.17188 3.27405 1.17188 2.73499C1.17188 2.28707 1.29297 1.89644 1.53516 1.56311C1.77995 1.22717 2.10807 0.966756 2.51953 0.78186C2.93359 0.59436 3.39583 0.50061 3.90625 0.50061C4.42188 0.50061 4.88021 0.593058 5.28125 0.777954C5.68229 0.960245 6 1.21025 6.23437 1.52795C6.47135 1.84566 6.59635 2.20634 6.60938 2.60999H5.67188ZM7.86652 8.60999V2.60999H8.7884V8.60999H7.86652ZM8.33527 1.60999C8.15559 1.60999 8.00064 1.54879 7.87043 1.42639C7.74283 1.304 7.67902 1.15686 7.67902 0.984985C7.67902 0.81311 7.74283 0.665975 7.87043 0.543579C8.00064 0.421183 8.15559 0.359985 8.33527 0.359985C8.51496 0.359985 8.66861 0.421183 8.79621 0.543579C8.92642 0.665975 8.99152 0.81311 8.99152 0.984985C8.99152 1.15686 8.92642 1.304 8.79621 1.42639C8.66861 1.54879 8.51496 1.60999 8.33527 1.60999ZM12.5787 10.985C12.1334 10.985 11.7506 10.9277 11.4303 10.8131C11.11 10.7011 10.8431 10.5527 10.6295 10.3678C10.4186 10.1855 10.2506 9.99019 10.1256 9.78186L10.86 9.26624C10.9433 9.37561 11.0488 9.50061 11.1764 9.64124C11.304 9.78446 11.4785 9.90816 11.6998 10.0123C11.9238 10.1191 12.2168 10.1725 12.5787 10.1725C13.0631 10.1725 13.4629 10.0553 13.778 9.82092C14.0931 9.58655 14.2506 9.21936 14.2506 8.71936V7.50061H14.1725C14.1048 7.60999 14.0084 7.7454 13.8834 7.90686C13.761 8.06571 13.584 8.20764 13.3522 8.33264C13.123 8.45504 12.8131 8.51624 12.4225 8.51624C11.9381 8.51624 11.5032 8.40165 11.1178 8.17249C10.735 7.94332 10.4316 7.60999 10.2077 7.17249C9.9863 6.73499 9.87562 6.20374 9.87562 5.57874C9.87562 4.96415 9.9837 4.429 10.1998 3.97327C10.416 3.51493 10.7168 3.16077 11.1022 2.91077C11.4876 2.65816 11.9329 2.53186 12.4381 2.53186C12.8287 2.53186 13.1386 2.59696 13.3678 2.72717C13.5996 2.85478 13.7767 3.00061 13.8991 3.16467C14.0241 3.32613 14.1204 3.45894 14.1881 3.56311H14.2819V2.60999H15.1725V8.78186C15.1725 9.29749 15.0553 9.71676 14.8209 10.0397C14.5892 10.3652 14.2767 10.6035 13.8834 10.7545C13.4928 10.9082 13.0579 10.985 12.5787 10.985ZM12.5475 7.68811C12.9173 7.68811 13.2298 7.60347 13.485 7.4342C13.7402 7.26493 13.9342 7.02144 14.067 6.70374C14.1998 6.38603 14.2662 6.00582 14.2662 5.56311C14.2662 5.13082 14.2011 4.74931 14.0709 4.41858C13.9407 4.08785 13.748 3.82874 13.4928 3.64124C13.2376 3.45374 12.9225 3.35999 12.5475 3.35999C12.1569 3.35999 11.8314 3.45894 11.5709 3.65686C11.3131 3.85478 11.1191 4.1204 10.9889 4.45374C10.8613 4.78707 10.7975 5.15686 10.7975 5.56311C10.7975 5.97978 10.8626 6.34827 10.9928 6.66858C11.1256 6.98629 11.3209 7.23629 11.5787 7.41858C11.8392 7.59827 12.1621 7.68811 12.5475 7.68811ZM17.4619 5.00061V8.60999H16.54V2.60999H17.4306V3.54749H17.5088C17.6494 3.2428 17.8629 2.99801 18.1494 2.81311C18.4358 2.62561 18.8056 2.53186 19.2588 2.53186C19.665 2.53186 20.0205 2.61519 20.3252 2.78186C20.6298 2.94592 20.8668 3.19592 21.0361 3.53186C21.2054 3.86519 21.29 4.28707 21.29 4.79749V8.60999H20.3681V4.85999C20.3681 4.38863 20.2457 4.02144 20.0009 3.75842C19.7561 3.4928 19.4202 3.35999 18.9931 3.35999C18.6989 3.35999 18.4358 3.42379 18.2041 3.55139C17.9749 3.679 17.7939 3.86519 17.6611 4.10999C17.5283 4.35478 17.4619 4.65165 17.4619 5.00061ZM26.5221 0.609985V8.60999H25.5533V0.609985H26.5221ZM28.9413 5.00061V8.60999H28.0195V2.60999H28.9101V3.54749H28.9882C29.1288 3.2428 29.3424 2.99801 29.6288 2.81311C29.9153 2.62561 30.2851 2.53186 30.7382 2.53186C31.1445 2.53186 31.4999 2.61519 31.8046 2.78186C32.1093 2.94592 32.3463 3.19592 32.5155 3.53186C32.6848 3.86519 32.7695 4.28707 32.7695 4.79749V8.60999H31.8476V4.85999C31.8476 4.38863 31.7252 4.02144 31.4804 3.75842C31.2356 3.4928 30.8997 3.35999 30.4726 3.35999C30.1783 3.35999 29.9153 3.42379 29.6835 3.55139C29.4543 3.679 29.2734 3.86519 29.1405 4.10999C29.0077 4.35478 28.9413 4.65165 28.9413 5.00061Z" fill="#030712"/>
</svg>
