<svg width="19" height="16" viewBox="0 0 19 16" fill="none" xmlns="http://www.w3.org/2000/svg">
<path d="M15.8202 0.469825H2.50016C2.08682 0.469825 1.70016 0.569824 1.34016 0.769825C0.980156 0.969825 0.69349 1.24316 0.480156 1.58982C0.266823 1.93649 0.160156 2.31649 0.160156 2.72982V12.7298C0.160156 13.1432 0.26349 13.5298 0.470156 13.8898C0.676823 14.2498 0.956823 14.5365 1.31016 14.7498C1.66349 14.9632 2.06016 15.0698 2.50016 15.0698H15.8202C16.2335 15.0698 16.6202 14.9665 16.9802 14.7598C17.3402 14.5532 17.6268 14.2732 17.8402 13.9198C18.0535 13.5665 18.1602 13.1698 18.1602 12.7298V2.72982C18.1602 2.31649 18.0535 1.93649 17.8402 1.58982C17.6268 1.24316 17.3402 0.969825 16.9802 0.769825C16.6202 0.569824 16.2335 0.469825 15.8202 0.469825ZM2.50016 1.72982H15.8202C16.1135 1.72982 16.3535 1.82982 16.5402 2.02982C16.7268 2.22982 16.8202 2.46316 16.8202 2.72982V3.22982L9.66016 7.80982C9.48682 7.88982 9.30682 7.92982 9.12016 7.92982C8.93349 7.92982 8.75349 7.88982 8.58016 7.80982L1.50016 3.22982V2.72982C1.50016 2.43649 1.59349 2.19649 1.78016 2.00982C1.96682 1.82316 2.20682 1.72982 2.50016 1.72982ZM15.8202 13.8098H2.50016C2.22016 13.8098 1.98349 13.7065 1.79016 13.4998C1.59682 13.2932 1.50016 13.0632 1.50016 12.8098V4.72982L8.00016 8.88982C8.28016 9.11649 8.66682 9.22982 9.16016 9.22982C9.65349 9.22982 10.0402 9.11649 10.3202 8.88982L16.8202 4.72982V12.7298C16.8202 13.0232 16.7268 13.2765 16.5402 13.4898C16.3535 13.7032 16.1135 13.8098 15.8202 13.8098Z" fill="#9CA3AF"/>
</svg>
