<svg width="50" height="10" viewBox="0 0 50 10" fill="none" xmlns="http://www.w3.org/2000/svg">
<path d="M2.16548 9.79999H0.651278L4.05362 0.345442H5.7017L9.10405 9.79999H7.58984L4.9169 2.06277H4.84304L2.16548 9.79999ZM2.41939 6.09757H7.33132V7.29786H2.41939V6.09757ZM12.9112 9.9431C12.2249 9.9431 11.634 9.78768 11.1385 9.47683C10.646 9.16291 10.2675 8.7305 10.0028 8.1796C9.73812 7.6287 9.60578 6.99779 9.60578 6.28685C9.60578 5.56668 9.7412 4.93114 10.012 4.38024C10.2829 3.82627 10.6645 3.39386 11.1569 3.08301C11.6493 2.77217 12.2295 2.61675 12.8973 2.61675C13.4359 2.61675 13.916 2.71677 14.3377 2.91682C14.7593 3.11379 15.0994 3.39078 15.3579 3.74779C15.6195 4.10479 15.7749 4.52182 15.8242 4.99885H14.4808C14.4069 4.66646 14.2376 4.38024 13.973 4.14019C13.7114 3.90013 13.3605 3.7801 12.9204 3.7801C12.5357 3.7801 12.1987 3.88166 11.9094 4.08479C11.6232 4.28484 11.4001 4.57106 11.24 4.94345C11.08 5.31277 11 5.7498 11 6.25453C11 6.77158 11.0784 7.21784 11.2354 7.59331C11.3924 7.96879 11.6139 8.25962 11.9002 8.46583C12.1895 8.67203 12.5296 8.77513 12.9204 8.77513C13.182 8.77513 13.419 8.72743 13.6313 8.63202C13.8468 8.53353 14.0268 8.3935 14.1715 8.21192C14.3192 8.03034 14.4223 7.81182 14.4808 7.55638H15.8242C15.7749 8.01495 15.6257 8.42428 15.3764 8.78436C15.1271 9.14445 14.7932 9.42759 14.3746 9.63379C13.9591 9.84 13.4713 9.9431 12.9112 9.9431ZM19.9672 9.9431C19.2808 9.9431 18.6899 9.78768 18.1944 9.47683C17.702 9.16291 17.3235 8.7305 17.0588 8.1796C16.7941 7.6287 16.6618 6.99779 16.6618 6.28685C16.6618 5.56668 16.7972 4.93114 17.068 4.38024C17.3388 3.82627 17.7205 3.39386 18.2129 3.08301C18.7053 2.77217 19.2855 2.61675 19.9533 2.61675C20.4919 2.61675 20.972 2.71677 21.3936 2.91682C21.8153 3.11379 22.1554 3.39078 22.4139 3.74779C22.6755 4.10479 22.8309 4.52182 22.8802 4.99885H21.5368C21.4629 4.66646 21.2936 4.38024 21.0289 4.14019C20.7673 3.90013 20.4165 3.7801 19.9764 3.7801C19.5917 3.7801 19.2547 3.88166 18.9654 4.08479C18.6792 4.28484 18.456 4.57106 18.296 4.94345C18.136 5.31277 18.0559 5.7498 18.0559 6.25453C18.0559 6.77158 18.1344 7.21784 18.2914 7.59331C18.4483 7.96879 18.6699 8.25962 18.9561 8.46583C19.2454 8.67203 19.5855 8.77513 19.9764 8.77513C20.238 8.77513 20.475 8.72743 20.6873 8.63202C20.9028 8.53353 21.0828 8.3935 21.2275 8.21192C21.3752 8.03034 21.4783 7.81182 21.5368 7.55638H22.8802C22.8309 8.01495 22.6816 8.42428 22.4324 8.78436C22.1831 9.14445 21.8491 9.42759 21.4306 9.63379C21.0151 9.84 20.5273 9.9431 19.9672 9.9431ZM27.0231 9.9431C26.3584 9.9431 25.7782 9.79075 25.2827 9.48607C24.7872 9.18138 24.4025 8.75513 24.1286 8.2073C23.8547 7.65948 23.7177 7.01933 23.7177 6.28685C23.7177 5.55129 23.8547 4.90806 24.1286 4.35716C24.4025 3.80626 24.7872 3.37847 25.2827 3.07378C25.7782 2.76909 26.3584 2.61675 27.0231 2.61675C27.6879 2.61675 28.268 2.76909 28.7635 3.07378C29.259 3.37847 29.6438 3.80626 29.9177 4.35716C30.1916 4.90806 30.3285 5.55129 30.3285 6.28685C30.3285 7.01933 30.1916 7.65948 29.9177 8.2073C29.6438 8.75513 29.259 9.18138 28.7635 9.48607C28.268 9.79075 27.6879 9.9431 27.0231 9.9431ZM27.0277 8.78436C27.4586 8.78436 27.8156 8.67049 28.0988 8.44274C28.3819 8.215 28.5912 7.91185 28.7266 7.5333C28.8651 7.15475 28.9344 6.73772 28.9344 6.28223C28.9344 5.82982 28.8651 5.41433 28.7266 5.03578C28.5912 4.65415 28.3819 4.34793 28.0988 4.1171C27.8156 3.88628 27.4586 3.77087 27.0277 3.77087C26.5938 3.77087 26.2337 3.88628 25.9475 4.1171C25.6643 4.34793 25.4535 4.65415 25.315 5.03578C25.1796 5.41433 25.1119 5.82982 25.1119 6.28223C25.1119 6.73772 25.1796 7.15475 25.315 7.5333C25.4535 7.91185 25.6643 8.215 25.9475 8.44274C26.2337 8.67049 26.5938 8.78436 27.0277 8.78436ZM36.0411 6.85929V2.70908H37.4261V9.79999H36.0688V8.572H35.9949C35.8318 8.95056 35.5702 9.26602 35.2101 9.51838C34.8531 9.76767 34.4084 9.89232 33.876 9.89232C33.4205 9.89232 33.0173 9.79229 32.6665 9.59225C32.3187 9.38912 32.0448 9.08905 31.8447 8.69203C31.6478 8.29502 31.5493 7.80413 31.5493 7.21938V2.70908H32.9296V7.05318C32.9296 7.53637 33.0635 7.92108 33.3312 8.2073C33.599 8.49352 33.9468 8.63664 34.3746 8.63664C34.6331 8.63664 34.8901 8.572 35.1455 8.44274C35.404 8.31348 35.6179 8.11805 35.7872 7.85645C35.9596 7.59485 36.0442 7.26246 36.0411 6.85929ZM40.3411 5.58976V9.79999H38.9607V2.70908H40.2857V3.8632H40.3734C40.5365 3.48772 40.7919 3.18611 41.1397 2.95837C41.4906 2.73062 41.9322 2.61675 42.4646 2.61675C42.9478 2.61675 43.371 2.71831 43.7342 2.92144C44.0973 3.12148 44.3789 3.42002 44.579 3.81703C44.779 4.21405 44.8791 4.70494 44.8791 5.28969V9.79999H43.4987V5.45588C43.4987 4.94191 43.3648 4.54028 43.0971 4.25098C42.8293 3.95861 42.4616 3.81242 41.9938 3.81242C41.6737 3.81242 41.389 3.88166 41.1397 4.02016C40.8935 4.15865 40.6981 4.36178 40.5534 4.62953C40.4118 4.89421 40.3411 5.21429 40.3411 5.58976ZM49.7203 2.70908V3.81703H45.847V2.70908H49.7203ZM46.8858 1.01021H48.2661V7.71796C48.2661 7.98571 48.3061 8.1873 48.3861 8.32272C48.4661 8.45505 48.5692 8.54584 48.6954 8.59509C48.8247 8.64125 48.9647 8.66433 49.1155 8.66433C49.2263 8.66433 49.3233 8.65664 49.4064 8.64125C49.4894 8.62586 49.5541 8.61355 49.6002 8.60432L49.8495 9.74459C49.7695 9.77537 49.6556 9.80614 49.5079 9.83692C49.3602 9.87077 49.1755 9.88924 48.9539 9.89232C48.5908 9.89847 48.2522 9.83384 47.9383 9.69843C47.6244 9.56301 47.3705 9.35373 47.1766 9.07058C46.9827 8.78744 46.8858 8.43197 46.8858 8.00418V1.01021Z" fill="#030712"/>
</svg>
