<svg width="24" height="15" viewBox="0 0 24 15" fill="none" xmlns="http://www.w3.org/2000/svg">
<mask id="mask0_6314_4055" style="mask-type:luminance" maskUnits="userSpaceOnUse" x="0" y="0" width="24" height="15">
<path d="M24 0.140625H0V14.9406H24V0.140625Z" fill="white"/>
</mask>
<g mask="url(#mask0_6314_4055)">
<path d="M7.4 14.9406C11.4869 14.9406 14.8 11.6275 14.8 7.54063C14.8 3.45372 11.4869 0.140625 7.4 0.140625C3.31309 0.140625 0 3.45372 0 7.54063C0 11.6275 3.31309 14.9406 7.4 14.9406Z" fill="#DD3D31"/>
<path d="M16.5992 14.9406C20.6861 14.9406 23.9992 11.6275 23.9992 7.54063C23.9992 3.45372 20.6861 0.140625 16.5992 0.140625C12.5123 0.140625 9.19922 3.45372 9.19922 7.54063C9.19922 11.6275 12.5123 14.9406 16.5992 14.9406Z" fill="#EEB046"/>
<path fill-rule="evenodd" clip-rule="evenodd" d="M11.999 13.4408C15.199 10.9408 15.799 6.24072 13.299 3.04072C12.899 2.54072 12.499 2.14072 11.999 1.74072C8.79892 4.24072 8.19892 8.94072 10.699 12.1408C11.099 12.6408 11.499 13.0408 11.999 13.4408Z" fill="#EF7D2F"/>
</g>
</svg>
