<svg width="23" height="23" viewBox="0 0 23 23" fill="none" xmlns="http://www.w3.org/2000/svg">
<g clip-path="url(#clip0_6314_4031)" filter="url(#filter0_d_6314_4031)">
<path d="M17.6152 5.07998C17.6252 5.16998 17.6302 5.30498 17.6302 5.48498C17.6302 6.52498 17.4402 7.54998 17.0602 8.55998C16.6702 9.61998 16.1102 10.56 15.3802 11.38C14.6002 12.26 13.6852 12.945 12.6352 13.435C11.4952 13.965 10.2452 14.23 8.88516 14.23C8.02516 14.23 7.19516 14.1125 6.39516 13.8775C5.59516 13.6425 4.85016 13.3 4.16016 12.85C4.42016 12.88 4.67016 12.895 4.91016 12.895C5.61016 12.895 6.28766 12.78 6.94266 12.55C7.59766 12.32 8.19016 11.995 8.72016 11.575C8.05016 11.565 7.45266 11.36 6.92766 10.96C6.40266 10.56 6.04016 10.055 5.84016 9.44498C6.04016 9.47498 6.23516 9.48998 6.42516 9.48998C6.72516 9.48998 6.99516 9.45498 7.23516 9.38498C6.76516 9.29498 6.34516 9.10498 5.97516 8.81498C5.60516 8.52498 5.31266 8.16748 5.09766 7.74248C4.88266 7.31748 4.77516 6.85998 4.77516 6.36998V6.32498C5.18516 6.56498 5.64516 6.69498 6.15516 6.71498C5.73516 6.44498 5.40266 6.08248 5.15766 5.62748C4.91266 5.17248 4.79016 4.68498 4.79016 4.16498C4.79016 3.60498 4.93016 3.08498 5.21016 2.60498C5.98016 3.55498 6.90516 4.30998 7.98516 4.86998C9.09516 5.43998 10.2802 5.75998 11.5402 5.82998C11.4902 5.57998 11.4652 5.34498 11.4652 5.12498C11.4652 4.56498 11.6027 4.04998 11.8777 3.57998C12.1527 3.10998 12.5252 2.73748 12.9952 2.46248C13.4652 2.18748 13.9802 2.04998 14.5402 2.04998C14.9802 2.04998 15.3952 2.13748 15.7852 2.31248C16.1752 2.48748 16.5102 2.72498 16.7902 3.02498C17.5002 2.88498 18.1502 2.63498 18.7402 2.27498C18.6302 2.63498 18.4577 2.95998 18.2227 3.24998C17.9877 3.53998 17.7102 3.77998 17.3902 3.96998C17.9602 3.90998 18.5502 3.74998 19.1602 3.48998C18.7402 4.10998 18.2252 4.63998 17.6152 5.07998Z" fill="#1DA1F2"/>
</g>
<defs>
<filter id="filter0_d_6314_4031" x="0" y="0.640137" width="23" height="23" filterUnits="userSpaceOnUse" color-interpolation-filters="sRGB">
<feFlood flood-opacity="0" result="BackgroundImageFix"/>
<feColorMatrix in="SourceAlpha" type="matrix" values="0 0 0 0 0 0 0 0 0 0 0 0 0 0 0 0 0 0 127 0" result="hardAlpha"/>
<feOffset dy="4"/>
<feGaussianBlur stdDeviation="2"/>
<feComposite in2="hardAlpha" operator="out"/>
<feColorMatrix type="matrix" values="0 0 0 0 0 0 0 0 0 0 0 0 0 0 0 0 0 0 0.25 0"/>
<feBlend mode="normal" in2="BackgroundImageFix" result="effect1_dropShadow_6314_4031"/>
<feBlend mode="normal" in="SourceGraphic" in2="effect1_dropShadow_6314_4031" result="shape"/>
</filter>
<clipPath id="clip0_6314_4031">
<rect width="15" height="15" fill="white" transform="matrix(1 0 0 -1 4 15.6401)"/>
</clipPath>
</defs>
</svg>
