<svg width="36" height="13" viewBox="0 0 36 13" fill="none" xmlns="http://www.w3.org/2000/svg">
<mask id="mask0_6314_4047" style="mask-type:luminance" maskUnits="userSpaceOnUse" x="0" y="0" width="36" height="13">
<path d="M36 0.540527H0V12.5405H36V0.540527Z" fill="white"/>
</mask>
<g mask="url(#mask0_6314_4047)">
<path d="M31.6008 4.84063L32.2008 8.04063H29.8008L31.0008 4.94063L31.2008 4.34063L31.3008 3.84063C31.3008 3.94063 31.6008 4.84063 31.6008 4.84063ZM8.90078 11.9406L13.3008 1.04063H10.3008L7.60078 8.54063L7.30078 6.94063L6.30078 1.94063C6.20078 1.34063 5.70078 0.94063 4.90078 0.94063H0.400781L0.300781 1.14063C1.50078 1.34063 2.40078 1.74063 3.30078 2.34063L5.90078 12.0406H9.00078L8.90078 11.9406ZM15.6008 11.9406L17.4008 1.04063H14.6008L12.8008 12.1406H15.6008V11.9406ZM25.7008 8.44063C25.7008 7.24063 24.9008 6.24063 23.3008 5.34063C22.1008 4.84063 21.5008 4.44063 21.5008 4.04063C21.5008 3.44063 22.1008 3.14063 23.3008 3.14063C24.0008 3.14063 24.7008 3.14063 25.3008 3.64063H25.7008L26.0008 1.14063C25.1008 0.740625 24.3008 0.640625 23.4008 0.640625C22.5008 0.640625 21.7008 0.840625 21.0008 1.14063C20.3008 1.44063 19.7008 1.84063 19.2008 2.44063C18.8008 3.04063 18.6008 3.64063 18.6008 4.34063C18.6008 5.54063 19.4008 6.54063 21.2008 7.44063C22.1008 7.94063 22.6008 8.34062 22.6008 8.74062C22.6008 9.44062 22.0008 9.94063 20.9008 9.94063C20.0008 9.94063 19.0008 9.74063 18.2008 9.34063L17.8008 9.14063L17.3008 11.5406C18.3008 11.9406 19.4008 12.2406 20.5008 12.2406C21.8008 12.3406 23.0008 11.9406 24.0008 11.3406C25.2008 10.5406 25.7008 9.54063 25.7008 8.44063ZM35.7008 11.9406L33.4008 1.04063H31.2008C30.5008 1.04063 30.0008 1.24063 29.8008 1.94063L25.5008 12.1406H28.5008L29.0008 10.5406H32.8008L33.2008 12.2406H35.8008V11.9406H35.7008Z" fill="url(#paint0_linear_6314_4047)"/>
</g>
<defs>
<linearGradient id="paint0_linear_6314_4047" x1="1.58268" y1="6.44903" x2="35.2457" y2="6.44903" gradientUnits="userSpaceOnUse">
<stop stop-color="#2C3572"/>
<stop offset="1" stop-color="#3C62AB"/>
</linearGradient>
</defs>
</svg>
